<svg width="18" height="18" viewBox="0 0 18 18" fill="none" xmlns="http://www.w3.org/2000/svg">
<g id="Icon_sentiment_satisfied">
<mask id="mask0_155_560" style="mask-type:alpha" maskUnits="userSpaceOnUse" x="0" y="0" width="18" height="18">
<rect id="Bounding box" width="18" height="18" fill="#D9D9D9"/>
</mask>
<g mask="url(#mask0_155_560)">
<path id="sentiment_satisfied" d="M11.625 8.25C11.9375 8.25 12.2031 8.14062 12.4219 7.92188C12.6406 7.70312 12.75 7.4375 12.75 7.125C12.75 6.8125 12.6406 6.54688 12.4219 6.32812C12.2031 6.10938 11.9375 6 11.625 6C11.3125 6 11.0469 6.10938 10.8281 6.32812C10.6094 6.54688 10.5 6.8125 10.5 7.125C10.5 7.4375 10.6094 7.70312 10.8281 7.92188C11.0469 8.14062 11.3125 8.25 11.625 8.25ZM6.375 8.25C6.6875 8.25 6.95312 8.14062 7.17188 7.92188C7.39062 7.70312 7.5 7.4375 7.5 7.125C7.5 6.8125 7.39062 6.54688 7.17188 6.32812C6.95312 6.10938 6.6875 6 6.375 6C6.0625 6 5.79688 6.10938 5.57812 6.32812C5.35938 6.54688 5.25 6.8125 5.25 7.125C5.25 7.4375 5.35938 7.70312 5.57812 7.92188C5.79688 8.14062 6.0625 8.25 6.375 8.25ZM9 13.125C9.85 13.125 10.6219 12.8844 11.3156 12.4031C12.0094 11.9219 12.5125 11.2875 12.825 10.5H11.5875C11.3125 10.9625 10.9469 11.3281 10.4906 11.5969C10.0344 11.8656 9.5375 12 9 12C8.4625 12 7.96562 11.8656 7.50937 11.5969C7.05312 11.3281 6.6875 10.9625 6.4125 10.5H5.175C5.4875 11.2875 5.99062 11.9219 6.68437 12.4031C7.37812 12.8844 8.15 13.125 9 13.125ZM9 16.5C7.9625 16.5 6.9875 16.3031 6.075 15.9094C5.1625 15.5156 4.36875 14.9813 3.69375 14.3063C3.01875 13.6313 2.48438 12.8375 2.09063 11.925C1.69687 11.0125 1.5 10.0375 1.5 9C1.5 7.9625 1.69687 6.9875 2.09063 6.075C2.48438 5.1625 3.01875 4.36875 3.69375 3.69375C4.36875 3.01875 5.1625 2.48438 6.075 2.09063C6.9875 1.69687 7.9625 1.5 9 1.5C10.0375 1.5 11.0125 1.69687 11.925 2.09063C12.8375 2.48438 13.6313 3.01875 14.3063 3.69375C14.9813 4.36875 15.5156 5.1625 15.9094 6.075C16.3031 6.9875 16.5 7.9625 16.5 9C16.5 10.0375 16.3031 11.0125 15.9094 11.925C15.5156 12.8375 14.9813 13.6313 14.3063 14.3063C13.6313 14.9813 12.8375 15.5156 11.925 15.9094C11.0125 16.3031 10.0375 16.5 9 16.5ZM9 15C10.675 15 12.0938 14.4187 13.2563 13.2563C14.4187 12.0938 15 10.675 15 9C15 7.325 14.4187 5.90625 13.2563 4.74375C12.0938 3.58125 10.675 3 9 3C7.325 3 5.90625 3.58125 4.74375 4.74375C3.58125 5.90625 3 7.325 3 9C3 10.675 3.58125 12.0938 4.74375 13.2563C5.90625 14.4187 7.325 15 9 15Z" fill="#8C4FF2"/>
</g>
</g>
</svg>
