<svg width="24" height="24" viewBox="0 0 24 24" fill="none" xmlns="http://www.w3.org/2000/svg">
<g id="Icon300_logout">
<mask id="mask0_206_3441" style="mask-type:alpha" maskUnits="userSpaceOnUse" x="0" y="0" width="24" height="24">
<rect id="Bounding box" width="24" height="24" fill="#D9D9D9"/>
</mask>
<g mask="url(#mask0_206_3441)">
<path id="logout" d="M5.3077 20.5C4.80257 20.5 4.375 20.325 4.025 19.975C3.675 19.625 3.5 19.1974 3.5 18.6923V5.30772C3.5 4.80259 3.675 4.37502 4.025 4.02502C4.375 3.67502 4.80257 3.50002 5.3077 3.50002H12.0096V5H5.3077C5.23077 5 5.16024 5.03205 5.09612 5.09615C5.03202 5.16027 4.99997 5.23079 4.99997 5.30772V18.6923C4.99997 18.7692 5.03202 18.8397 5.09612 18.9038C5.16024 18.9679 5.23077 19 5.3077 19H12.0096V20.5H5.3077ZM16.2308 16.2692L15.1923 15.1846L17.6269 12.75H9.09613V11.25H17.6269L15.1923 8.8154L16.2308 7.73082L20.5 12L16.2308 16.2692Z" fill="#1C1B1F"/>
</g>
</g>
</svg>
