<svg width="12" height="12" viewBox="0 0 12 12" fill="none" xmlns="http://www.w3.org/2000/svg">
<g id="Icon_photo_camera">
<mask id="mask0_153_1220" style="mask-type:alpha" maskUnits="userSpaceOnUse" x="0" y="0" width="12" height="12">
<rect id="Bounding box" width="12" height="12" fill="#D9D9D9"/>
</mask>
<g mask="url(#mask0_153_1220)">
<path id="photo_camera" d="M6 8.75C6.625 8.75 7.15625 8.53125 7.59375 8.09375C8.03125 7.65625 8.25 7.125 8.25 6.5C8.25 5.875 8.03125 5.34375 7.59375 4.90625C7.15625 4.46875 6.625 4.25 6 4.25C5.375 4.25 4.84375 4.46875 4.40625 4.90625C3.96875 5.34375 3.75 5.875 3.75 6.5C3.75 7.125 3.96875 7.65625 4.40625 8.09375C4.84375 8.53125 5.375 8.75 6 8.75ZM6 7.75C5.65 7.75 5.35417 7.62917 5.1125 7.3875C4.87083 7.14583 4.75 6.85 4.75 6.5C4.75 6.15 4.87083 5.85417 5.1125 5.6125C5.35417 5.37083 5.65 5.25 6 5.25C6.35 5.25 6.64583 5.37083 6.8875 5.6125C7.12917 5.85417 7.25 6.15 7.25 6.5C7.25 6.85 7.12917 7.14583 6.8875 7.3875C6.64583 7.62917 6.35 7.75 6 7.75ZM2 10.5C1.725 10.5 1.48958 10.4021 1.29375 10.2063C1.09792 10.0104 1 9.775 1 9.5V3.5C1 3.225 1.09792 2.98958 1.29375 2.79375C1.48958 2.59792 1.725 2.5 2 2.5H3.575L4.5 1.5H7.5L8.425 2.5H10C10.275 2.5 10.5104 2.59792 10.7063 2.79375C10.9021 2.98958 11 3.225 11 3.5V9.5C11 9.775 10.9021 10.0104 10.7063 10.2063C10.5104 10.4021 10.275 10.5 10 10.5H2ZM2 9.5H10V3.5H7.975L7.0625 2.5H4.9375L4.025 3.5H2V9.5Z" fill="#1C1B1F"/>
</g>
</g>
</svg>
