<svg width="24" height="24" viewBox="0 0 24 24" fill="none" xmlns="http://www.w3.org/2000/svg">
<g id="Icon300_settings">
<mask id="mask0_152_524" style="mask-type:alpha" maskUnits="userSpaceOnUse" x="0" y="0" width="24" height="24">
<rect id="Bounding box" width="24" height="24" fill="#D9D9D9"/>
</mask>
<g mask="url(#mask0_152_524)">
<path id="settings" d="M9.69197 21.5L9.31119 18.4538C9.04324 18.3641 8.76856 18.2384 8.48714 18.0769C8.20572 17.9154 7.95412 17.7423 7.73232 17.5577L4.91117 18.75L2.60352 14.75L5.04389 12.9058C5.02081 12.7571 5.00446 12.6077 4.99484 12.4577C4.98522 12.3077 4.98042 12.1583 4.98042 12.0096C4.98042 11.8673 4.98522 11.7228 4.99484 11.576C5.00446 11.4292 5.02081 11.2686 5.04389 11.0942L2.60352 9.25001L4.91117 5.26928L7.72269 6.45198C7.96372 6.26095 8.2211 6.08626 8.49482 5.92793C8.76855 5.76958 9.03747 5.64233 9.30157 5.54618L9.69197 2.50003H14.3073L14.688 5.55581C14.988 5.66477 15.2595 5.79201 15.5025 5.93753C15.7454 6.08305 15.9906 6.25453 16.2381 6.45198L19.0881 5.26928L21.3957 9.25001L18.9169 11.1231C18.9528 11.2846 18.9723 11.4356 18.9755 11.576C18.9787 11.7163 18.9803 11.8577 18.9803 12C18.9803 12.1359 18.9771 12.274 18.9707 12.4144C18.9643 12.5548 18.9412 12.7154 18.9015 12.8962L21.3611 14.75L19.0534 18.75L16.2381 17.548C15.9906 17.7455 15.7381 17.9202 15.4804 18.0721C15.2227 18.224 14.9586 18.3481 14.688 18.4442L14.3073 21.5H9.69197ZM10.9996 20H12.965L13.3246 17.3212C13.8349 17.1878 14.3012 16.9984 14.7236 16.7529C15.1461 16.5074 15.5534 16.1917 15.9458 15.8058L18.4304 16.85L19.415 15.15L17.2458 13.5154C17.3291 13.2564 17.3858 13.0026 17.416 12.7539C17.4461 12.5051 17.4611 12.2539 17.4611 12C17.4611 11.7398 17.4461 11.4885 17.416 11.2462C17.3858 11.0039 17.3291 10.7564 17.2458 10.5039L19.4342 8.85001L18.4496 7.15001L15.9361 8.20963C15.6015 7.85193 15.2006 7.53591 14.7333 7.26156C14.2659 6.98719 13.7932 6.79296 13.315 6.67886L12.9996 4.00001H11.015L10.6842 6.66923C10.174 6.78975 9.70282 6.97436 9.27077 7.22308C8.83872 7.4718 8.42654 7.79232 8.03424 8.18463L5.54962 7.15001L4.56499 8.85001L6.72462 10.4596C6.64128 10.6968 6.58295 10.9436 6.54962 11.2C6.51628 11.4564 6.49962 11.7263 6.49962 12.0096C6.49962 12.2699 6.51628 12.525 6.54962 12.775C6.58295 13.025 6.63807 13.2718 6.71499 13.5154L4.56499 15.15L5.54962 16.85L8.02462 15.8C8.4041 16.1898 8.80986 16.509 9.24192 16.7577C9.67397 17.0064 10.1515 17.1974 10.6746 17.3308L10.9996 20ZM12.0111 15C12.8432 15 13.5512 14.708 14.1352 14.124C14.7191 13.54 15.0111 12.832 15.0111 12C15.0111 11.168 14.7191 10.46 14.1352 9.87598C13.5512 9.29202 12.8432 9.00003 12.0111 9.00003C11.1689 9.00003 10.4583 9.29202 9.87944 9.87598C9.30061 10.46 9.01119 11.168 9.01119 12C9.01119 12.832 9.30061 13.54 9.87944 14.124C10.4583 14.708 11.1689 15 12.0111 15Z" fill="#888888"/>
</g>
</g>
</svg>
